<?xml version="1.0" standalone="no"?><svg xmlns="http://www.w3.org/2000/svg" viewBox="0 0 1440 320"><path fill="#0099ff" fill-opacity="1" d="M0,256L30,245.3C60,235,120,213,180,218.7C240,224,300,256,360,234.7C420,213,480,139,540,106.7C600,75,660,85,720,101.3C780,117,840,139,900,160C960,181,1020,203,1080,202.7C1140,203,1200,181,1260,170.7C1320,160,1380,160,1410,160L1440,160L1440,0L1410,0C1380,0,1320,0,1260,0C1200,0,1140,0,1080,0C1020,0,960,0,900,0C840,0,780,0,720,0C660,0,600,0,540,0C480,0,420,0,360,0C300,0,240,0,180,0C120,0,60,0,30,0L0,0Z"></path></svg>